<svg xmlns="http://www.w3.org/2000/svg" version="1.1" xmlns:xlink="http://www.w3.org/1999/xlink" xmlns:svgjs="http://svgjs.com/svgjs" width="1440" height="560" preserveAspectRatio="none" viewBox="0 0 1440 560"><g mask="url(&quot;#SvgjsMask1127&quot;)" fill="none"><path d="M222 87.23L368.36 171.73L368.36 340.73L222 425.23L75.64 340.73L75.64 171.73zM75.64 340.73L222 425.23L222 594.23L75.64 678.73L-70.72 594.23L-70.72 425.23zM368.36 -166.27L514.73 -81.77L514.73 87.23L368.36 171.73L222 87.23L222 -81.77zM953.81 -166.27L1100.18 -81.77L1100.18 87.23L953.81 171.73L807.45 87.23L807.45 -81.77zM1246.54 -166.27L1392.9 -81.77L1392.9 87.23L1246.54 171.73L1100.18 87.23L1100.18 -81.77z" stroke="rgba(0, 123, 255, 1)" stroke-width="2"></path></g><defs><mask id="SvgjsMask1127"><rect width="1440" height="560" fill="#ffffff"></rect></mask></defs></svg>