<svg xmlns="http://www.w3.org/2000/svg" version="1.1" xmlns:xlink="http://www.w3.org/1999/xlink" xmlns:svgjs="http://svgjs.com/svgjs" width="1440" height="560" preserveAspectRatio="none" viewBox="0 0 1440 560"><g mask="url(&quot;#SvgjsMask1077&quot;)" fill="none"><path d="M99.06 82.44L151.03 112.44L151.03 172.44L99.06 202.44L47.1 172.44L47.1 112.44zM151.03 -7.56L202.99 22.44L202.99 82.44L151.03 112.44L99.06 82.44L99.06 22.44zM254.95 -7.56L306.92 22.44L306.92 82.44L254.95 112.44L202.99 82.44L202.99 22.44zM254.95 532.44L306.92 562.44L306.92 622.44L254.95 652.44L202.99 622.44L202.99 562.44zM514.77 442.44L566.73 472.44L566.73 532.44L514.77 562.44L462.8 532.44L462.8 472.44zM722.62 262.44L774.58 292.44L774.58 352.44L722.62 382.44L670.66 352.44L670.66 292.44zM1034.4 82.44L1086.36 112.44L1086.36 172.44L1034.4 202.44L982.43 172.44L982.43 112.44zM1138.32 442.44L1190.29 472.44L1190.29 532.44L1138.32 562.44L1086.36 532.44L1086.36 472.44zM1190.29 532.44L1242.25 562.44L1242.25 622.44L1190.29 652.44L1138.32 622.44L1138.32 562.44zM1346.17 82.44L1398.14 112.44L1398.14 172.44L1346.17 202.44L1294.21 172.44L1294.21 112.44z" stroke="rgba(13, 110, 253, 1)" stroke-width="2"></path></g><defs><mask id="SvgjsMask1077"><rect width="1440" height="560" fill="#ffffff"></rect></mask></defs></svg>